<?xml version="1.0" standalone="no"?>
<!DOCTYPE svg PUBLIC "-//W3C//DTD SVG 20010904//EN"
 "http://www.w3.org/TR/2001/REC-SVG-20010904/DTD/svg10.dtd">
<svg version="1.0" xmlns="http://www.w3.org/2000/svg"
 width="700.000000pt" height="700.000000pt" viewBox="0 0 700.000000 700.000000"
 preserveAspectRatio="xMidYMid meet">
<metadata>
Created by potrace 1.14, written by Peter Selinger 2001-2017
</metadata>
<g transform="translate(0.000000,700.000000) scale(0.100000,-0.100000)"
fill="#000000" stroke="none">
<path d="M2427 6844 c-1 -1 -58 -4 -127 -8 -69 -3 -141 -8 -160 -10 -82 -11
-107 -15 -130 -20 -14 -3 -36 -8 -50 -10 -110 -21 -186 -41 -310 -83 -476
-162 -896 -473 -1196 -888 -63 -87 -120 -180 -181 -295 -33 -61 -133 -290
-137 -314 -2 -6 -14 -48 -29 -93 -15 -46 -29 -93 -31 -105 -3 -13 -15 -68 -26
-123 -12 -55 -23 -120 -26 -145 -2 -25 -7 -56 -10 -70 -10 -52 -13 -328 -3
-384 20 -121 91 -269 169 -353 22 -24 36 -43 31 -43 -4 0 -33 -25 -64 -56 -61
-61 -119 -165 -136 -244 -17 -79 -7 -197 24 -273 l27 -68 -29 -87 c-24 -74
-28 -102 -27 -192 0 -70 7 -125 19 -165 16 -56 69 -167 98 -207 9 -14 9 -22 0
-35 -39 -55 -75 -125 -90 -173 -24 -80 -24 -78 -28 -160 -7 -135 29 -257 107
-367 l30 -41 3 -259 c4 -339 26 -459 121 -662 193 -414 581 -691 1044 -746 75
-9 4276 -10 4370 -1 207 20 413 92 591 209 81 52 105 73 209 177 183 183 295
390 350 650 20 91 23 139 25 366 l2 262 32 46 c76 110 113 238 107 363 -5 116
-45 235 -103 312 l-26 34 46 86 c57 106 78 181 82 291 4 88 -9 170 -40 251
-18 45 -18 45 10 115 31 75 41 197 24 277 -21 97 -93 210 -177 280 -19 15 -30
27 -25 27 14 0 107 128 136 185 56 112 72 188 72 345 0 421 -105 808 -323
1190 -27 47 -134 210 -157 238 -212 265 -383 425 -630 587 -70 46 -77 51 -210
120 -206 107 -483 201 -679 230 -21 3 -48 7 -60 10 -29 6 -96 13 -196 21 -67
5 -2307 13 -2313 8z"/>
</g>
</svg>
